<svg width="89" height="89" viewBox="0 0 89 89" fill="none" xmlns="http://www.w3.org/2000/svg">
<path d="M77.875 38.6038H68.6042C68.1135 38.6058 67.6282 38.7052 67.1762 38.8961C66.7243 39.0871 66.3147 39.3659 65.9713 39.7163L61.3729 44.5L50.9896 32.6704C50.6427 32.2999 50.2235 32.0046 49.7578 31.8026C49.2922 31.6007 48.79 31.4965 48.2825 31.4965C47.775 31.4965 47.2728 31.6007 46.8072 31.8026C46.3415 32.0046 45.9223 32.2999 45.5754 32.6704L39.2713 38.9746H33.375C32.3915 38.9746 31.4483 39.3653 30.7528 40.0607C30.0574 40.7562 29.6667 41.6994 29.6667 42.6829C29.6667 43.6664 30.0574 44.6097 30.7528 45.3051C31.4483 46.0006 32.3915 46.3913 33.375 46.3913H40.7917C41.2797 46.3941 41.7635 46.3005 42.2153 46.116C42.6671 45.9314 43.0781 45.6595 43.4246 45.3158L48.2083 40.3467L58.5917 52.1762C58.9266 52.5581 59.3365 52.867 59.7958 53.0839C60.2551 53.3008 60.754 53.421 61.2617 53.4371C61.7497 53.4399 62.2335 53.3464 62.6853 53.1618C63.1371 52.9773 63.5481 52.7054 63.8946 52.3617L70.1988 46.0204H77.875C78.8585 46.0204 79.8017 45.6297 80.4972 44.9343C81.1926 44.2388 81.5833 43.2956 81.5833 42.3121C81.5833 41.3286 81.1926 40.3853 80.4972 39.6899C79.8017 38.9944 78.8585 38.6038 77.875 38.6038ZM50.4704 58.2579L43.4246 65.3038C43.0798 65.6513 42.6697 65.9272 42.2178 66.1155C41.7659 66.3037 41.2812 66.4007 40.7917 66.4007C40.3021 66.4007 39.8174 66.3037 39.3655 66.1155C38.9136 65.9272 38.5035 65.6513 38.1588 65.3038L18.8383 45.9833C17.5668 44.7126 16.5582 43.2037 15.87 41.543C15.1818 39.8823 14.8276 38.1022 14.8276 36.3046C14.8276 34.5069 15.1818 32.7269 15.87 31.0662C16.5582 29.4054 17.5668 27.8966 18.8383 26.6258C21.4033 24.0692 24.8771 22.6336 28.4985 22.6336C32.12 22.6336 35.5938 24.0692 38.1588 26.6258C38.5035 26.9734 38.9136 27.2493 39.3655 27.4376C39.8174 27.6258 40.3021 27.7228 40.7917 27.7228C41.2812 27.7228 41.7659 27.6258 42.2178 27.4376C42.6697 27.2493 43.0798 26.9734 43.4246 26.6258C46.0303 24.1476 49.4888 22.7656 53.0848 22.7656C56.6808 22.7656 60.1393 24.1476 62.745 26.6258C63.5713 27.463 64.2935 28.3968 64.8958 29.4071C65.4358 30.1495 66.2319 30.6653 67.1303 30.8546C68.0286 31.0439 68.9652 30.8933 69.7588 30.4319C70.5525 29.9704 71.1467 29.231 71.4267 28.3567C71.7066 27.4824 71.6522 26.5353 71.2742 25.6987C70.3576 24.1767 69.262 22.7698 68.0108 21.5083C64.4916 17.9478 59.8193 15.7571 54.8314 15.329C49.8435 14.9009 44.8662 16.2633 40.7917 19.1721C37.6428 16.9037 33.9284 15.5493 30.0584 15.2585C26.1884 14.9677 22.3134 15.7517 18.8608 17.524C15.4082 19.2963 12.5125 21.988 10.493 25.3021C8.47354 28.6161 7.40893 32.4237 7.41667 36.3046C7.41556 39.0639 7.96241 41.796 9.0255 44.3423C10.0886 46.8887 11.6468 49.1985 13.6096 51.1379L32.93 70.4583C35.0159 72.5417 37.8435 73.7119 40.7917 73.7119C43.7398 73.7119 46.5674 72.5417 48.6533 70.4583L55.625 63.4867C56.3157 62.7919 56.7034 61.852 56.7034 60.8723C56.7034 59.8926 56.3157 58.9527 55.625 58.2579C54.9335 57.5895 54.0094 57.2159 53.0477 57.2159C52.086 57.2159 51.1619 57.5895 50.4704 58.2579Z" fill="white"/>
</svg>
