<svg width="24" height="24" viewBox="0 0 24 24" fill="none" xmlns="http://www.w3.org/2000/svg">
<path d="M18.08 7C17.9486 6.98906 17.8163 7.00423 17.6908 7.04461C17.5653 7.08499 17.449 7.14981 17.3486 7.23531C17.2482 7.32082 17.1657 7.42533 17.1059 7.54284C17.0461 7.66035 17.0101 7.78853 17 7.92L16.65 12.47C16.1876 12.3269 15.7728 12.0607 15.45 11.7C15.3562 11.5936 15.2407 11.5084 15.1114 11.45C14.9821 11.3916 14.8419 11.3614 14.7 11.3614C14.5581 11.3614 14.4179 11.3916 14.2886 11.45C14.1593 11.5084 14.0438 11.5936 13.95 11.7C13.7018 11.9697 13.4004 12.185 13.0647 12.3323C12.7291 12.4795 12.3665 12.5556 12 12.5556C11.6335 12.5556 11.2709 12.4795 10.9353 12.3323C10.5996 12.185 10.2982 11.9697 10.05 11.7C9.95616 11.5936 9.84075 11.5084 9.71144 11.45C9.58213 11.3916 9.44188 11.3614 9.3 11.3614C9.15812 11.3614 9.01787 11.3916 8.88856 11.45C8.75925 11.5084 8.64384 11.5936 8.55 11.7C8.22622 12.0596 7.81177 12.3255 7.35 12.47L7 7.92C6.98991 7.78853 6.95391 7.66035 6.89408 7.54284C6.83425 7.42533 6.75178 7.32082 6.6514 7.23531C6.55102 7.14981 6.43473 7.08499 6.3092 7.04461C6.18368 7.00423 6.05141 6.98906 5.92 7C5.78853 7.0101 5.66035 7.04609 5.54284 7.10592C5.42533 7.16575 5.32082 7.24822 5.23531 7.3486C5.14981 7.44898 5.08499 7.56527 5.04461 7.6908C5.00423 7.81632 4.98906 7.94859 5 8.08L5.86 19.23C5.91806 19.9851 6.25959 20.6904 6.81603 21.2041C7.37247 21.7179 8.10264 22.0022 8.86 22H15.16C15.9174 22.0022 16.6475 21.7179 17.204 21.2041C17.7604 20.6904 18.1019 19.9851 18.16 19.23L19 8.08C19.0109 7.94859 18.9958 7.81632 18.9554 7.6908C18.915 7.56527 18.8502 7.44898 18.7647 7.3486C18.6792 7.24822 18.5747 7.16575 18.4572 7.10592C18.3397 7.04609 18.2115 7.0101 18.08 7ZM16.14 19.08C16.1198 19.3311 16.0057 19.5654 15.8203 19.7359C15.6349 19.9065 15.3919 20.0008 15.14 20H8.85C8.59808 20.0008 8.35514 19.9065 8.16974 19.7359C7.98434 19.5654 7.87015 19.3311 7.85 19.08L7.5 14.5C8.14834 14.3645 8.76136 14.0955 9.3 13.71C10.0887 14.2707 11.0323 14.5719 12 14.5719C12.9677 14.5719 13.9113 14.2707 14.7 13.71C15.2386 14.0955 15.8517 14.3645 16.5 14.5L16.14 19.08ZM12 10C12.8611 9.99736 13.6863 9.65411 14.2952 9.04518C14.9041 8.43626 15.2474 7.61114 15.25 6.75C15.25 4 12.67 2.24 12.56 2.17C12.3946 2.05822 12.1996 1.99849 12 1.99849C11.8004 1.99849 11.6054 2.05822 11.44 2.17C11.33 2.25 8.75 4 8.75 6.75C8.75264 7.61114 9.09589 8.43626 9.70482 9.04518C10.3137 9.65411 11.1389 9.99736 12 10ZM12 4.3C12.7236 4.91972 13.173 5.80038 13.25 6.75C13.25 7.08152 13.1183 7.39946 12.8839 7.63388C12.6495 7.8683 12.3315 8 12 8C11.6685 8 11.3505 7.8683 11.1161 7.63388C10.8817 7.39946 10.75 7.08152 10.75 6.75C10.8323 5.80188 11.2807 4.92309 12 4.3Z" fill="white"/>
</svg>
